<svg width="134" height="330" viewBox="0 0 134 330" fill="none" xmlns="http://www.w3.org/2000/svg">
<path d="M117.586 20.6025C109.564 10.0925 98.8761 -2.43438 84.1562 0.409641C76.459 1.40714 68.93 3.43051 61.7696 6.42585C60.4104 7.01175 53.4278 9.89268 57.5941 8.57711C64.9307 6.5616 72.4931 5.48385 80.1007 5.36959C83.5722 5.31959 86.9783 5.17817 90.0695 6.03977C95.8345 7.45119 99.718 11.7676 103.721 16.9007C104.139 17.443 104.759 18.2481 105.191 18.809C117.374 34.4749 120.436 51.5211 122.309 68.2979C126.049 106.151 115.396 146.831 89.609 159.695C88.2912 160.271 86.939 160.765 85.5602 161.174C83.3838 160.411 80.8069 160.668 77.7219 162.495C55.5307 163.217 37.8104 138.277 30.0406 114.816C24.5998 98.2637 23.6816 86.8424 24.5855 69.2807C25.4007 53.0885 31.3636 31.7235 47.5953 19.7349C54.3721 14.9763 62.5336 13.2372 70.4089 11.1877C60.0878 12.049 49.2533 13.3188 40.7407 19.772C20.4505 35.3878 14.2216 62.1398 15.0758 86.6274C16.58 119.66 36.6892 164.313 67.7336 171.778C67.7018 172.031 75.7325 172.61 75.701 172.863C79.5579 172.998 86.4413 172.317 92.899 169.45C108.564 162.495 120.214 146.027 125.815 129.849C137.296 99.4804 137.454 47.4586 117.586 20.6025Z" fill="black"/>
<path d="M70.5 236.5C63 207 88.4788 179.262 81.8625 171C88.6663 178.072 73.5 212 82.402 234.63C86.4497 243.659 95.5 249.5 97.5 263.621C95.1853 270.603 91.194 276.911 85.8757 281.992C77.568 290.297 66.1092 294.177 55.0143 297.204C41.3322 301.103 26.1368 303.989 15.7603 309.897C8.76162 313.692 4.10298 320.431 1.23425 327.703C1.04774 328.192 0.733954 328.941 0.528564 329.5C0.734974 328.405 0.94729 327.309 1.19986 326.223C4.61535 306.835 20.9915 299.112 37.6072 292.618C56.6852 284.591 70.5634 283.585 81.8625 269.119C82.0272 268.85 82.2074 268.591 82.402 268.344C86.1425 262.32 82.402 257 82.402 257L70.5 236.5Z" fill="black"/>
</svg>
